<svg width="24" height="24" viewBox="0 0 24 24" fill="none" xmlns="http://www.w3.org/2000/svg">
<path fill-rule="evenodd" clip-rule="evenodd" d="M16.7071 14.293C16.8946 14.4805 16.9999 14.7348 16.9999 15C16.9999 15.2652 16.8946 15.5195 16.7071 15.707L12.7071 19.707C12.5196 19.8945 12.2652 19.9998 12.0001 19.9998C11.7349 19.9998 11.4806 19.8945 11.2931 19.707L7.29308 15.707C7.19757 15.6148 7.12139 15.5044 7.06898 15.3824C7.01657 15.2604 6.98898 15.1292 6.98783 14.9964C6.98668 14.8636 7.01198 14.7319 7.06226 14.609C7.11254 14.4861 7.18679 14.3745 7.28069 14.2806C7.37458 14.1867 7.48623 14.1125 7.60913 14.0622C7.73202 14.0119 7.8637 13.9866 7.99648 13.9877C8.12926 13.9889 8.26048 14.0165 8.38249 14.0689C8.50449 14.1213 8.61483 14.1975 8.70708 14.293L11.0001 16.586V5C11.0001 4.73478 11.1054 4.48043 11.293 4.29289C11.4805 4.10536 11.7349 4 12.0001 4C12.2653 4 12.5197 4.10536 12.7072 4.29289C12.8947 4.48043 13.0001 4.73478 13.0001 5V16.586L15.2931 14.293C15.4806 14.1055 15.7349 14.0002 16.0001 14.0002C16.2652 14.0002 16.5196 14.1055 16.7071 14.293Z" fill="#B0BABF"/>
</svg>
