<svg width="24" height="24" viewBox="0 0 24 24" fill="none" xmlns="http://www.w3.org/2000/svg">
<path fill-rule="evenodd" clip-rule="evenodd" d="M7.29303 9.70703C7.10556 9.5195 7.00024 9.26519 7.00024 9.00003C7.00024 8.73487 7.10556 8.48056 7.29303 8.29303L11.293 4.29303C11.4806 4.10556 11.7349 4.00024 12 4.00024C12.2652 4.00024 12.5195 4.10556 12.707 4.29303L16.707 8.29303C16.8892 8.48163 16.99 8.73423 16.9877 8.99643C16.9854 9.25863 16.8803 9.50944 16.6948 9.69485C16.5094 9.88026 16.2586 9.98543 15.9964 9.9877C15.7342 9.98998 15.4816 9.88919 15.293 9.70703L13 7.41403V19C13 19.2652 12.8947 19.5196 12.7071 19.7071C12.5196 19.8947 12.2652 20 12 20C11.7348 20 11.4805 19.8947 11.2929 19.7071C11.1054 19.5196 11 19.2652 11 19V7.41403L8.70703 9.70703C8.5195 9.8945 8.26519 9.99982 8.00003 9.99982C7.73487 9.99982 7.48056 9.8945 7.29303 9.70703Z" fill="#F76659"/>
</svg>
