<svg width="24" height="24" viewBox="0 0 24 24" fill="none" xmlns="http://www.w3.org/2000/svg">
<path fill-rule="evenodd" clip-rule="evenodd" d="M6.29303 17.707C6.10556 17.5195 6.00024 17.2652 6.00024 17C6.00024 16.7349 6.10556 16.4806 6.29303 16.293L11.293 11.293C11.4806 11.1056 11.7349 11.0002 12 11.0002C12.2652 11.0002 12.5195 11.1056 12.707 11.293L17.707 16.293C17.8892 16.4816 17.99 16.7342 17.9877 16.9964C17.9854 17.2586 17.8803 17.5094 17.6948 17.6948C17.5094 17.8803 17.2586 17.9854 16.9964 17.9877C16.7342 17.99 16.4816 17.8892 16.293 17.707L12 13.414L7.70703 17.707C7.5195 17.8945 7.26519 17.9998 7.00003 17.9998C6.73487 17.9998 6.48056 17.8945 6.29303 17.707ZM6.29303 11.707C6.10556 11.5195 6.00024 11.2652 6.00024 11C6.00024 10.7349 6.10556 10.4806 6.29303 10.293L11.293 5.29303C11.4806 5.10556 11.7349 5.00024 12 5.00024C12.2652 5.00024 12.5195 5.10556 12.707 5.29303L17.707 10.293C17.8892 10.4816 17.99 10.7342 17.9877 10.9964C17.9854 11.2586 17.8803 11.5094 17.6948 11.6948C17.5094 11.8803 17.2586 11.9854 16.9964 11.9877C16.7342 11.99 16.4816 11.8892 16.293 11.707L12 7.41403L7.70703 11.707C7.5195 11.8945 7.26519 11.9998 7.00003 11.9998C6.73487 11.9998 6.48056 11.8945 6.29303 11.707Z" fill="#F76659"/>
</svg>
