<svg width="32" height="32" viewBox="0 0 32 32" fill="none" xmlns="http://www.w3.org/2000/svg">
<path fill-rule="evenodd" clip-rule="evenodd" d="M24 16C24 18.1217 23.1571 20.1566 21.6569 21.6569C20.1566 23.1571 18.1217 24 16 24C13.8783 24 11.8434 23.1571 10.3431 21.6569C8.84285 20.1566 8 18.1217 8 16C8 13.8783 8.84285 11.8434 10.3431 10.3431C11.8434 8.84285 13.8783 8 16 8C18.1217 8 20.1566 8.84285 21.6569 10.3431C23.1571 11.8434 24 13.8783 24 16ZM16 13C15.8243 12.9998 15.6517 13.046 15.4994 13.1337C15.3472 13.2215 15.2209 13.3478 15.133 13.5C15.0696 13.6179 14.9831 13.7218 14.8788 13.8057C14.7744 13.8895 14.6543 13.9515 14.5255 13.9881C14.3967 14.0247 14.2619 14.035 14.1291 14.0185C13.9963 14.002 13.8681 13.959 13.7522 13.892C13.6363 13.8251 13.535 13.7355 13.4543 13.6287C13.3737 13.5218 13.3153 13.3999 13.2826 13.2701C13.25 13.1403 13.2437 13.0052 13.2642 12.8729C13.2847 12.7407 13.3316 12.6138 13.402 12.5C13.7322 11.9281 14.2419 11.4812 14.852 11.2285C15.4621 10.9758 16.1386 10.9314 16.7765 11.1024C17.4143 11.2733 17.978 11.6499 18.38 12.1738C18.782 12.6977 19 13.3396 19 14C19.0002 14.6206 18.8079 15.226 18.4498 15.7329C18.0916 16.2397 17.5851 16.623 17 16.83V17C17 17.2652 16.8946 17.5196 16.7071 17.7071C16.5196 17.8946 16.2652 18 16 18C15.7348 18 15.4804 17.8946 15.2929 17.7071C15.1054 17.5196 15 17.2652 15 17V16C15 15.7348 15.1054 15.4804 15.2929 15.2929C15.4804 15.1054 15.7348 15 16 15C16.2652 15 16.5196 14.8946 16.7071 14.7071C16.8946 14.5196 17 14.2652 17 14C17 13.7348 16.8946 13.4804 16.7071 13.2929C16.5196 13.1054 16.2652 13 16 13ZM16 21C16.2652 21 16.5196 20.8946 16.7071 20.7071C16.8946 20.5196 17 20.2652 17 20C17 19.7348 16.8946 19.4804 16.7071 19.2929C16.5196 19.1054 16.2652 19 16 19C15.7348 19 15.4804 19.1054 15.2929 19.2929C15.1054 19.4804 15 19.7348 15 20C15 20.2652 15.1054 20.5196 15.2929 20.7071C15.4804 20.8946 15.7348 21 16 21Z" fill="#5B6871"/>
</svg>
