<svg width="32" height="32" viewBox="0 0 32 32" fill="none" xmlns="http://www.w3.org/2000/svg">
<path fill-rule="evenodd" clip-rule="evenodd" d="M18.395 8.55298C18.3316 8.42601 18.2419 8.31399 18.1319 8.22436C18.0219 8.13473 17.8941 8.06954 17.7569 8.03312C17.6198 7.99671 17.4764 7.9899 17.3364 8.01315C17.1965 8.0364 17.063 8.08918 16.945 8.16798C16.6 8.39798 16.331 8.72598 16.123 9.04798C15.909 9.37798 15.72 9.76098 15.553 10.164C15.219 10.968 14.939 11.932 14.713 12.898C14.4397 14.0785 14.235 15.2738 14.1 16.478C13.6931 16.2157 13.3662 15.8466 13.155 15.411C12.827 14.731 12.757 13.877 12.757 12.757C12.757 12.5592 12.6983 12.3659 12.5884 12.2015C12.4785 12.0371 12.3224 11.909 12.1397 11.8333C11.957 11.7576 11.7559 11.7378 11.562 11.7764C11.368 11.815 11.1898 11.9102 11.05 12.05C10.3992 12.6994 9.88302 13.471 9.53122 14.3205C9.17943 15.17 8.99889 16.0805 9 17C9.00008 18.1511 9.28404 19.2844 9.82674 20.2996C10.3694 21.3148 11.1541 22.1804 12.1112 22.8199C13.0684 23.4594 14.1685 23.853 15.3141 23.9658C16.4596 24.0786 17.6154 23.9071 18.6788 23.4666C19.7423 23.0261 20.6808 22.3301 21.411 21.4403C22.1413 20.5504 22.6409 19.4942 22.8655 18.3652C23.0901 17.2362 23.0328 16.0693 22.6987 14.9677C22.3645 13.8662 21.7639 12.864 20.95 12.05C20.358 11.459 19.97 11.065 19.602 10.583C19.239 10.107 18.878 9.51998 18.395 8.55298ZM18.12 21.12C17.7004 21.539 17.1661 21.8243 16.5845 21.9398C16.0029 22.0554 15.4002 21.996 14.8523 21.7691C14.3045 21.5423 13.8361 21.1582 13.5064 20.6653C13.1767 20.1724 13.0005 19.5929 13 19C13 19 13.879 19.5 15.5 19.5C15.5 18.5 16 15.5 16.75 15C17.25 16 17.536 16.293 18.121 16.879C18.4 17.1572 18.6213 17.4878 18.7722 17.8517C18.923 18.2157 19.0005 18.606 19 19C19.0005 19.394 18.923 19.7842 18.7722 20.1482C18.6213 20.5122 18.4 20.8428 18.121 21.121L18.12 21.12Z" fill="#F76659"/>
</svg>
