<svg width="24" height="24" viewBox="0 0 24 24" fill="none" xmlns="http://www.w3.org/2000/svg">
<path fill-rule="evenodd" clip-rule="evenodd" d="M13.9999 9C13.7347 9 13.4803 8.89464 13.2928 8.70711C13.1053 8.51957 12.9999 8.26522 12.9999 8C12.9999 7.73478 13.1053 7.48043 13.2928 7.29289C13.4803 7.10536 13.7347 7 13.9999 7H18.9999C19.2651 7 19.5195 7.10536 19.707 7.29289C19.8946 7.48043 19.9999 7.73478 19.9999 8V13C19.9999 13.2652 19.8946 13.5196 19.707 13.7071C19.5195 13.8946 19.2651 14 18.9999 14C18.7347 14 18.4803 13.8946 18.2928 13.7071C18.1053 13.5196 17.9999 13.2652 17.9999 13V10.414L13.7069 14.707C13.5194 14.8945 13.2651 14.9998 12.9999 14.9998C12.7348 14.9998 12.4804 14.8945 12.2929 14.707L9.99992 12.414L5.70692 16.707C5.51832 16.8892 5.26571 16.99 5.00352 16.9877C4.74132 16.9854 4.49051 16.8802 4.3051 16.6948C4.11969 16.5094 4.01452 16.2586 4.01224 15.9964C4.00997 15.7342 4.11076 15.4816 4.29292 15.293L9.29292 10.293C9.48045 10.1055 9.73475 10.0002 9.99992 10.0002C10.2651 10.0002 10.5194 10.1055 10.7069 10.293L12.9999 12.586L16.5859 9H13.9999Z" fill="#84919A"/>
</svg>
