<svg width="24" height="24" viewBox="0 0 24 24" fill="none" xmlns="http://www.w3.org/2000/svg">
<path d="M4 6C4 5.73478 4.10536 5.48043 4.29289 5.29289C4.48043 5.10536 4.73478 5 5 5H7C7.26522 5 7.51957 5.10536 7.70711 5.29289C7.89464 5.48043 8 5.73478 8 6V18C8 18.2652 7.89464 18.5196 7.70711 18.7071C7.51957 18.8946 7.26522 19 7 19H5C4.73478 19 4.48043 18.8946 4.29289 18.7071C4.10536 18.5196 4 18.2652 4 18V6ZM10 6C10 5.73478 10.1054 5.48043 10.2929 5.29289C10.4804 5.10536 10.7348 5 11 5H13C13.2652 5 13.5196 5.10536 13.7071 5.29289C13.8946 5.48043 14 5.73478 14 6V18C14 18.2652 13.8946 18.5196 13.7071 18.7071C13.5196 18.8946 13.2652 19 13 19H11C10.7348 19 10.4804 18.8946 10.2929 18.7071C10.1054 18.5196 10 18.2652 10 18V6ZM17 5C16.7348 5 16.4804 5.10536 16.2929 5.29289C16.1054 5.48043 16 5.73478 16 6V18C16 18.2652 16.1054 18.5196 16.2929 18.7071C16.4804 18.8946 16.7348 19 17 19H19C19.2652 19 19.5196 18.8946 19.7071 18.7071C19.8946 18.5196 20 18.2652 20 18V6C20 5.73478 19.8946 5.48043 19.7071 5.29289C19.5196 5.10536 19.2652 5 19 5H17Z" fill="#4094F7"/>
</svg>
