<svg width="32" height="32" viewBox="0 0 32 32" fill="none" xmlns="http://www.w3.org/2000/svg">
<path fill-rule="evenodd" clip-rule="evenodd" d="M21.6573 10.3427C20.5893 9.27523 19.2409 8.53188 17.7681 8.19855C16.2953 7.86522 14.7583 7.95552 13.3347 8.45902C11.9111 8.96251 10.659 9.85864 9.7233 11.0438C8.78757 12.229 8.20638 13.6547 8.0469 15.1563C7.88743 16.6579 8.15619 18.174 8.82211 19.5292C9.48804 20.8845 10.5239 22.0236 11.81 22.8149C13.0961 23.6061 14.5799 24.0173 16.0899 24.0007C17.5998 23.9842 19.0742 23.5406 20.3427 22.7213C20.4895 22.6206 20.655 22.5504 20.8294 22.5147C21.0039 22.479 21.1837 22.4786 21.3582 22.5136C21.5328 22.5485 21.6986 22.618 21.8459 22.7181C21.9932 22.8181 22.1189 22.9467 22.2157 23.0961C22.3125 23.2455 22.3784 23.4128 22.4095 23.5881C22.4406 23.7634 22.4363 23.9432 22.3968 24.1168C22.3573 24.2904 22.2834 24.4543 22.1795 24.5989C22.0757 24.7435 21.9439 24.8658 21.792 24.9587C19.8009 26.2461 17.4377 26.8335 15.0755 26.628C12.7134 26.4226 10.4871 25.4359 8.74827 23.8239C7.00945 22.212 5.85728 20.0666 5.47378 17.7268C5.09028 15.3869 5.4973 12.986 6.63056 10.9033C7.76381 8.82064 9.55869 7.17489 11.7316 6.22609C13.9046 5.27729 16.3317 5.07953 18.6296 5.66405C20.9274 6.24857 22.9651 7.58205 24.4205 9.45382C25.876 11.3256 26.6663 13.6289 26.6667 16C26.6669 16.743 26.4602 17.4713 26.0698 18.1034C25.6793 18.7355 25.1206 19.2464 24.4561 19.5787C23.7916 19.9111 23.0477 20.0519 22.3078 19.9852C21.5678 19.9185 20.861 19.6471 20.2667 19.2013C19.5069 20.2144 18.4114 20.9241 17.1762 21.2033C15.941 21.4826 14.6468 21.3133 13.5251 20.7256C12.4033 20.138 11.5273 19.1704 11.0537 17.9959C10.5801 16.8215 10.5398 15.5168 10.9401 14.3154C11.3404 13.114 12.1552 12.0942 13.2386 11.4386C14.3219 10.7829 15.6033 10.5341 16.8533 10.7367C18.1033 10.9393 19.2405 11.5801 20.0613 12.5444C20.8821 13.5087 21.333 14.7336 21.3333 16C21.3333 16.3536 21.4738 16.6928 21.7239 16.9428C21.9739 17.1929 22.313 17.3333 22.6667 17.3333C23.0203 17.3333 23.3594 17.1929 23.6095 16.9428C23.8595 16.6928 24 16.3536 24 16C24 13.9507 23.2187 11.9067 21.6573 10.3427ZM18.6667 16C18.6667 15.2928 18.3857 14.6145 17.8856 14.1144C17.3855 13.6143 16.7072 13.3333 16 13.3333C15.2928 13.3333 14.6145 13.6143 14.1144 14.1144C13.6143 14.6145 13.3333 15.2928 13.3333 16C13.3333 16.7072 13.6143 17.3855 14.1144 17.8856C14.6145 18.3857 15.2928 18.6667 16 18.6667C16.7072 18.6667 17.3855 18.3857 17.8856 17.8856C18.3857 17.3855 18.6667 16.7072 18.6667 16Z" fill="#F8C51B"/>
</svg>
