<svg width="24" height="24" viewBox="0 0 24 24" fill="none" xmlns="http://www.w3.org/2000/svg">
<path fill-rule="evenodd" clip-rule="evenodd" d="M17.7071 6.29303C17.8946 6.48056 17.9999 6.73487 17.9999 7.00003C17.9999 7.26519 17.8946 7.5195 17.7071 7.70703L12.7071 12.707C12.5196 12.8945 12.2652 12.9998 12.0001 12.9998C11.7349 12.9998 11.4806 12.8945 11.2931 12.707L6.29308 7.70703C6.11092 7.51843 6.01013 7.26583 6.01241 7.00363C6.01469 6.74143 6.11985 6.49062 6.30526 6.30521C6.49067 6.1198 6.74148 6.01463 7.00368 6.01236C7.26588 6.01008 7.51848 6.11087 7.70708 6.29303L12.0001 10.586L16.2931 6.29303C16.4806 6.10556 16.7349 6.00024 17.0001 6.00024C17.2652 6.00024 17.5196 6.10556 17.7071 6.29303ZM17.7071 12.293C17.8946 12.4806 17.9999 12.7349 17.9999 13C17.9999 13.2652 17.8946 13.5195 17.7071 13.707L12.7071 18.707C12.5196 18.8945 12.2652 18.9998 12.0001 18.9998C11.7349 18.9998 11.4806 18.8945 11.2931 18.707L6.29308 13.707C6.19757 13.6148 6.12139 13.5044 6.06898 13.3824C6.01657 13.2604 5.98898 13.1292 5.98783 12.9964C5.98668 12.8637 6.01198 12.732 6.06226 12.6091C6.11254 12.4862 6.18679 12.3745 6.28069 12.2806C6.37458 12.1867 6.48623 12.1125 6.60913 12.0622C6.73202 12.0119 6.8637 11.9866 6.99648 11.9878C7.12926 11.9889 7.26048 12.0165 7.38249 12.0689C7.50449 12.1213 7.61483 12.1975 7.70708 12.293L12.0001 16.586L16.2931 12.293C16.4806 12.1056 16.7349 12.0002 17.0001 12.0002C17.2652 12.0002 17.5196 12.1056 17.7071 12.293Z" fill="#47D16C"/>
</svg>
