<svg width="24" height="24" viewBox="0 0 24 24" fill="none" xmlns="http://www.w3.org/2000/svg">
<path fill-rule="evenodd" clip-rule="evenodd" d="M14.316 5.05105C14.4407 5.09252 14.5559 5.15814 14.6552 5.24416C14.7545 5.33019 14.8358 5.43493 14.8946 5.5524C14.9534 5.66988 14.9885 5.79778 14.9978 5.92881C15.0071 6.05984 14.9906 6.19142 14.949 6.31604L10.949 18.316C10.8652 18.5677 10.6849 18.7758 10.4476 18.8945C10.2104 19.0132 9.93572 19.0329 9.68403 18.949C9.43234 18.8652 9.22425 18.6849 9.10554 18.4476C8.98683 18.2104 8.96722 17.9357 9.05103 17.684L13.051 5.68404C13.0925 5.5594 13.1581 5.44415 13.2442 5.34488C13.3302 5.24561 13.4349 5.16425 13.5524 5.10547C13.6699 5.04669 13.7978 5.01162 13.9288 5.00229C14.0598 4.99295 14.1914 5.00952 14.316 5.05105ZM7.70703 8.29305C7.8945 8.48057 7.99982 8.73488 7.99982 9.00004C7.99982 9.26521 7.8945 9.51952 7.70703 9.70704L5.41403 12L7.70703 14.293C7.80254 14.3853 7.87872 14.4956 7.93113 14.6176C7.98354 14.7396 8.01113 14.8709 8.01228 15.0036C8.01343 15.1364 7.98813 15.2681 7.93785 15.391C7.88757 15.5139 7.81332 15.6255 7.71943 15.7194C7.62553 15.8133 7.51388 15.8876 7.39098 15.9379C7.26809 15.9881 7.13641 16.0134 7.00363 16.0123C6.87085 16.0111 6.73963 15.9836 6.61763 15.9311C6.49562 15.8787 6.38528 15.8026 6.29303 15.707L3.29303 12.707C3.10556 12.5195 3.00024 12.2652 3.00024 12C3.00024 11.7349 3.10556 11.4806 3.29303 11.293L6.29303 8.29305C6.48056 8.10557 6.73487 8.00026 7.00003 8.00026C7.26519 8.00026 7.5195 8.10557 7.70703 8.29305ZM16.293 8.29305C16.4806 8.10557 16.7349 8.00026 17 8.00026C17.2652 8.00026 17.5195 8.10557 17.707 8.29305L20.707 11.293C20.8945 11.4806 20.9998 11.7349 20.9998 12C20.9998 12.2652 20.8945 12.5195 20.707 12.707L17.707 15.707C17.6148 15.8026 17.5044 15.8787 17.3824 15.9311C17.2604 15.9836 17.1292 16.0111 16.9964 16.0123C16.8637 16.0134 16.732 15.9881 16.6091 15.9379C16.4862 15.8876 16.3745 15.8133 16.2806 15.7194C16.1867 15.6255 16.1125 15.5139 16.0622 15.391C16.0119 15.2681 15.9866 15.1364 15.9878 15.0036C15.9889 14.8709 16.0165 14.7396 16.0689 14.6176C16.1213 14.4956 16.1975 14.3853 16.293 14.293L18.586 12L16.293 9.70704C16.1056 9.51952 16.0002 9.26521 16.0002 9.00004C16.0002 8.73488 16.1056 8.48057 16.293 8.29305Z" fill="#84919A"/>
</svg>
