<svg width="24" height="24" viewBox="0 0 24 24" fill="none" xmlns="http://www.w3.org/2000/svg">
<path fill-rule="evenodd" clip-rule="evenodd" d="M4.58579 5.58579C4.21071 5.96086 4 6.46957 4 7V17C4 17.5304 4.21071 18.0391 4.58579 18.4142C4.96086 18.7893 5.46957 19 6 19H18C17.4696 19 16.9609 18.7893 16.5858 18.4142C16.2107 18.0391 16 17.5304 16 17V7C16 6.46957 15.7893 5.96086 15.4142 5.58579C15.0391 5.21071 14.5304 5 14 5H6C5.46957 5 4.96086 5.21071 4.58579 5.58579ZM13 8H7V12H13V8ZM7 14H13V16H7V14Z" fill="#84919A"/>
<path d="M18 9H17V16.5C17 16.8978 17.158 17.2794 17.4393 17.5607C17.7206 17.842 18.1022 18 18.5 18C18.8978 18 19.2794 17.842 19.5607 17.5607C19.842 17.2794 20 16.8978 20 16.5V11C20 10.4696 19.7893 9.96086 19.4142 9.58579C19.0391 9.21071 18.5304 9 18 9Z" fill="#84919A"/>
</svg>
